<svg id="Layer_1" data-name="Layer 1" xmlns="http://www.w3.org/2000/svg" viewBox="0 0 1000 1000"><defs><style>.cls-1{fill:#05083a;}.cls-2{fill:#f91c3d;}</style></defs><path class="cls-1" d="M294.52,671.21l410.72,1.33a11.44,11.44,0,0,1,9.62,17.59L678.68,747a11.47,11.47,0,0,1-9.7,5.3l-341.72-1.1a11.47,11.47,0,0,1-9.89-5.75l-32.82-57.11A11.45,11.45,0,0,1,294.52,671.21Z"/><path class="cls-1" d="M380.4,796.52l240.45.78c7.45,0,12.61,8.54,10,16.55l-112.61,162c-3.39,10.45-16.21,10.75-19.95.46L370.46,813.54C367.51,805.43,372.73,796.5,380.4,796.52Z"/><path class="cls-2" d="M463.33,18C455.5,12.35,445,20.13,448,29.29c14.66,44.27,27.2,142.26-88.67,248.74C215.75,410,340.86,540.55,385.6,579.72a4.88,4.88,0,0,0,7.82-5.27c-15.28-44-45.74-163.73,37.38-247.12C516,241.85,543.56,75.93,463.33,18Z"/><path class="cls-2" d="M567.15,179a5.64,5.64,0,0,1,10.8-1.44c16.35,38.84,44,129-9.92,205.2C497.11,483,557.6,519.59,599.09,476.94,637.34,437.63,657.81,371,647.53,310.5a5.64,5.64,0,0,1,9.35-5.16c21.59,19.6,62.15,68.12,50,148.42-13.76,90.62-97.65,201.35-198,159.75a136.15,136.15,0,0,1-82.9-111.89c-9.2-90.91,65.05-164.53,94.32-210.82l.27-.39C523,287.17,559,239.72,567.15,179Z"/></svg>